<?xml version="1.0" standalone="no"?>
<!DOCTYPE svg PUBLIC "-//W3C//DTD SVG 20010904//EN"
 "http://www.w3.org/TR/2001/REC-SVG-20010904/DTD/svg10.dtd">
<svg version="1.0" xmlns="http://www.w3.org/2000/svg"
 width="1000.000000pt" height="1000.000000pt" viewBox="0 0 1000.000000 1000.000000"
 preserveAspectRatio="xMidYMid meet">
<metadata>
Created by potrace 1.14, written by Peter Selinger 2001-2017
</metadata>
<g transform="translate(0.000000,1000.000000) scale(0.100000,-0.100000)"
fill="#000000" stroke="none">
<path d="M0 5000 l0 -5000 5000 0 5000 0 0 5000 0 5000 -5000 0 -5000 0 0
-5000z m4505 -1300 l315 0 0 920 0 920 175 0 175 0 0 -920 0 -920 325 0 325 0
2 1760 3 1759 157 -177 157 -177 1 -1737 0 -1738 -1140 0 -1140 0 0 1736 0
1735 163 183 162 183 3 -1764 2 -1763 315 0z m2195 1268 l0 -1268 330 0 330 0
2 891 3 891 167 -188 168 -189 0 -857 0 -858 -655 0 -655 0 0 1595 0 1596 155
-173 154 -173 1 -1267z m-3090 12 l0 -1590 -655 0 -655 0 0 858 1 857 152 171
152 171 3 -873 2 -874 330 0 330 0 0 1248 0 1248 166 187 c91 103 168 187 170
187 2 0 4 -715 4 -1590z"/>
</g>
</svg>
